<svg xmlns="http://www.w3.org/2000/svg" version="1.1" xmlns:xlink="http://www.w3.org/1999/xlink" xmlns:svgjs="http://svgjs.dev/svgjs" width="1500" height="935" viewBox="0 0 1500 935"><g transform="matrix(1,0,0,1,-0.9090909090909918,0.3785425101214628)"><svg viewBox="0 0 396 247" data-background-color="#ffffff" preserveAspectRatio="xMidYMid meet" height="935" width="1500" xmlns="http://www.w3.org/2000/svg" xmlns:xlink="http://www.w3.org/1999/xlink"><g id="tight-bounds" transform="matrix(1,0,0,1,0.2400000000000091,-0.09999999999999432)"><svg viewBox="0 0 395.52 247.2" height="247.2" width="395.52"><g><svg></svg></g><g><svg viewBox="0 0 395.52 247.2" height="247.2" width="395.52"><g transform="matrix(1,0,0,1,75.54432,85.90666168290261)"><svg viewBox="0 0 244.43135999999998 75.38667663419476" height="75.38667663419476" width="244.43135999999998"><g><svg viewBox="0 0 426.35874679600533 131.4960935244601" height="75.38667663419476" width="244.43135999999998"><g transform="matrix(1,0,0,1,181.92738679600538,12.342265073763947)"><svg viewBox="0 0 244.43135999999998 106.8115633769322" height="106.8115633769322" width="244.43135999999998"><g id="textblocktransform"><svg viewBox="0 0 244.43135999999998 106.8115633769322" height="106.8115633769322" width="244.43135999999998" id="textblock"><g><svg viewBox="0 0 244.43135999999998 106.8115633769322" height="106.8115633769322" width="244.43135999999998"><g transform="matrix(1,0,0,1,0,0)"><svg width="244.43135999999998" viewBox="1.8 -36.15 84.09 36.75" height="106.8115633769322" data-palette-color="#ff0000"><path d="M10.8 0.6Q6.15 0.6 3.98-2.73 1.8-6.05 1.8-13.15L1.8-13.15Q1.8-20.25 4-23.58 6.2-26.9 10.8-26.9L10.8-26.9Q15-26.9 16.93-24.3 18.85-21.7 18.85-16.55L18.85-16.55 14.6-16.55Q14.6-20.1 13.78-21.68 12.95-23.25 10.8-23.25L10.8-23.25Q8.4-23.25 7.25-20.98 6.1-18.7 6.1-14.1L6.1-14.1 6.1-12.2Q6.1-7.6 7.23-5.33 8.35-3.05 10.8-3.05L10.8-3.05Q12.95-3.05 13.88-4.7 14.8-6.35 14.8-9.75L14.8-9.75 18.85-9.75Q18.85-5.25 16.88-2.33 14.9 0.6 10.8 0.6L10.8 0.6ZM23.5 0L23.5-36.15 27.6-36.15 27.6-23.55 27.9-23.55Q29.8-26.9 33.8-26.9L33.8-26.9Q36.95-26.9 38.62-25.03 40.3-23.15 40.3-18.95L40.3-18.95 40.3 0 36.2 0 36.2-18.65Q36.2-21.2 35.25-22.23 34.3-23.25 32.5-23.25L32.5-23.25Q30.45-23.25 29.02-21.3 27.6-19.35 27.6-16.05L27.6-16.05 27.6 0 23.5 0ZM51.9 0.6Q49.2 0.6 47.09-1 45-2.6 45-6.8L45-6.8Q45-11.85 48.42-13.73 51.84-15.6 58.3-15.6L58.3-15.6 58.3-19Q58.3-21.05 57.4-22.15 56.5-23.25 54.15-23.25L54.15-23.25Q52-23.25 51.05-22.05 50.09-20.85 50.09-19.1L50.09-19.1 50.09-18.5 46.05-18.5Q46-18.8 46-19.6L46-19.6Q46-23.1 48.3-25 50.59-26.9 54.45-26.9L54.45-26.9Q58.4-26.9 60.4-25 62.4-23.1 62.4-19.55L62.4-19.55 62.4-4.8Q62.4-3.95 62.8-3.5 63.2-3.05 63.8-3.05L63.8-3.05 65.4-3.05 65.4-0.2Q64.3 0.4 62.7 0.4L62.7 0.4Q61.09 0.4 60.02-0.48 58.95-1.35 58.55-2.85L58.55-2.85 58.3-2.85Q57.3-1.2 55.62-0.3 53.95 0.6 51.9 0.6L51.9 0.6ZM52.84-3.05Q54.2-3.05 55.45-3.8 56.7-4.55 57.5-6.03 58.3-7.5 58.3-9.55L58.3-9.55 58.3-11.95Q53.8-11.95 51.55-10.93 49.3-9.9 49.3-7.05L49.3-7.05Q49.3-4.9 50.17-3.98 51.05-3.05 52.84-3.05L52.84-3.05ZM69.09 0L69.09-26.3 72.19-26.3 72.74-23.25 73.04-23.25Q75.09-26.9 79.39-26.9L79.39-26.9Q82.54-26.9 84.22-25.03 85.89-23.15 85.89-18.95L85.89-18.95 85.89 0 81.79 0 81.79-18.65Q81.79-21.2 80.84-22.23 79.89-23.25 78.09-23.25L78.09-23.25Q76.04-23.25 74.62-21.3 73.19-19.35 73.19-16.05L73.19-16.05 73.19 0 69.09 0Z" opacity="1" transform="matrix(1,0,0,1,0,0)" fill="#ff0000" class="wordmark-text-0" data-fill-palette-color="primary" id="text-0"></path></svg></g></svg></g></svg></g></svg></g><g><svg viewBox="0 0 131.4960935244601 131.4960935244601" height="131.4960935244601" width="131.4960935244601"><g><svg></svg></g><g id="icon-0"><svg viewBox="0 0 131.4960935244601 131.4960935244601" height="131.4960935244601" width="131.4960935244601"><g><path d="M0 65.748c0-36.312 29.436-65.748 65.748-65.748 36.312 0 65.748 29.436 65.748 65.748 0 36.312-29.436 65.748-65.748 65.748-36.312 0-65.748-29.436-65.748-65.748zM65.748 121.864c30.992 0 56.116-25.124 56.116-56.116 0-30.992-25.124-56.116-56.116-56.116-30.992 0-56.116 25.124-56.116 56.116 0 30.992 25.124 56.116 56.116 56.116z" data-fill-palette-color="accent" fill="#ff0000" stroke="transparent"></path></g><g transform="matrix(1,0,0,1,35.95478411622471,42.39655461622379)"><svg viewBox="0 0 59.58652529201068 46.702984292012516" height="46.702984292012516" width="59.58652529201068"><g><svg xmlns="http://www.w3.org/2000/svg" xmlns:xlink="http://www.w3.org/1999/xlink" version="1.1" x="0" y="0" viewBox="0 0 99.63200062247249 78.09" enable-background="new 0 0 99.633 78.09" xml:space="preserve" width="59.58652529201068" height="46.702984292012516" class="icon-cg-0" data-fill-palette-color="accent" id="cg-0"><g fill="#ff0000" data-fill-palette-color="accent"><path d="M96.941 0H2.693C1.205 0 0 1.206 0 2.693v56.548c0 1.489 1.205 2.694 2.693 2.694h43.085v10.771h-8.079c-1.488 0-2.693 1.204-2.693 2.692 0 1.485 1.205 2.692 2.693 2.692h21.542c1.488 0 2.692-1.207 2.692-2.692 0-1.488-1.204-2.692-2.692-2.692h-8.078V61.935h45.777c1.488 0 2.692-1.205 2.692-2.694V2.693C99.633 1.206 98.429 0 96.941 0zM94.248 56.548H5.386V5.385h88.861V56.548z" fill="#ff0000" data-fill-palette-color="accent"></path><path d="M43.264 41.276c0.063 0.177 0.155 0.33 0.25 0.488 0.063 0.101 0.084 0.217 0.16 0.311 0.029 0.037 0.074 0.048 0.105 0.082 0.19 0.212 0.413 0.376 0.66 0.521 0.084 0.05 0.153 0.123 0.24 0.163 0.336 0.15 0.705 0.244 1.099 0.244l0 0c0.002 0 0.002 0 0.002 0 0.327 0 0.65-0.073 0.963-0.194 0.116-0.045 0.213-0.116 0.321-0.176 0.131-0.074 0.273-0.121 0.396-0.219l10.771-8.619c0.092-0.074 0.14-0.177 0.219-0.26 0.06-0.064 0.145-0.09 0.202-0.161 0.052-0.066 0.065-0.146 0.11-0.214 0.103-0.154 0.179-0.311 0.247-0.48 0.063-0.159 0.118-0.314 0.149-0.48 0.032-0.17 0.04-0.333 0.043-0.507-0.003-0.173-0.011-0.336-0.043-0.507-0.031-0.166-0.086-0.321-0.149-0.48-0.068-0.169-0.145-0.326-0.247-0.479-0.045-0.069-0.059-0.149-0.11-0.215-0.066-0.08-0.158-0.119-0.229-0.19-0.07-0.072-0.109-0.166-0.191-0.23L47.46 21.054c-0.095-0.074-0.208-0.097-0.308-0.157-0.161-0.099-0.313-0.192-0.494-0.256-0.177-0.062-0.353-0.083-0.537-0.107-0.118-0.016-0.221-0.07-0.344-0.07-0.053 0-0.095 0.026-0.147 0.031-0.182 0.009-0.352 0.059-0.529 0.106-0.168 0.044-0.333 0.078-0.486 0.153-0.143 0.066-0.261 0.168-0.39 0.26-0.158 0.114-0.311 0.222-0.439 0.368-0.034 0.037-0.082 0.054-0.113 0.093-0.076 0.095-0.097 0.209-0.16 0.311-0.095 0.158-0.187 0.31-0.25 0.487-0.063 0.181-0.086 0.361-0.11 0.548-0.016 0.114-0.068 0.217-0.068 0.336v17.235c0 0.119 0.053 0.223 0.068 0.337C43.177 40.915 43.201 41.095 43.264 41.276zM48.47 28.761l3.769 3.014-3.769 3.014V28.761z" fill="#ff0000" data-fill-palette-color="accent"></path></g></svg></g></svg></g></svg></g></svg></g></svg></g></svg></g><g><path d="M0 123.6c0-68.262 55.338-123.6 123.6-123.6 52.415 0 97.21 32.627 115.183 78.679l-2.97 0c-17.828-44.493-61.351-75.917-112.213-75.918-66.737 0-120.839 54.101-120.839 120.839 0 66.737 54.101 120.839 120.839 120.839 50.863 0 94.386-31.424 112.213-75.918l2.97 0c-17.974 46.052-62.768 78.679-115.183 78.679-68.262 0-123.6-55.338-123.6-123.6z" fill="#ff0000" stroke="transparent" data-fill-palette-color="tertiary"></path></g></svg></g><defs></defs></svg><rect width="395.52" height="247.2" fill="none" stroke="none" visibility="hidden"></rect></g></svg></g></svg>